<?xml version="1.0" encoding="UTF-8"?>
<svg xmlns="http://www.w3.org/2000/svg" xmlns:xlink="http://www.w3.org/1999/xlink" width="20px" height="20px" viewBox="0 0 20 20" version="1.1">
<g id="surface1">
<path style="fill:none;stroke-width:2;stroke-linecap:round;stroke-linejoin:round;stroke:rgb(0%,0%,0%);stroke-opacity:1;stroke-miterlimit:4;" d="M 3 3 L 21 21 M 9.84375 9.914062 C 9.31875 10.453125 9 11.189062 9 12 C 9 13.654687 10.340625 15 12 15 C 12.820312 15 13.565625 14.667187 14.109375 14.132812 M 6.496875 6.646875 C 4.598437 7.898437 3.154687 9.782812 2.45625 12 C 3.73125 16.059375 7.523437 18.998437 12 18.998437 C 13.9875 18.998437 15.839062 18.417187 17.4 17.41875 M 10.996875 5.048437 C 11.329687 5.015625 11.6625 5.001562 12 5.001562 C 16.476562 5.001562 20.26875 7.940625 21.539062 12 C 21.2625 12.895312 20.859375 13.734375 20.353125 14.498437 " transform="matrix(0.833333,0,0,0.833333,0,0)"/>
</g>
</svg>
